<?xml version="1.0" encoding="utf-8"?>
<!-- Generator: Adobe Illustrator 16.0.0, SVG Export Plug-In . SVG Version: 6.00 Build 0)  -->
<!DOCTYPE svg PUBLIC "-//W3C//DTD SVG 1.1//EN" "http://www.w3.org/Graphics/SVG/1.1/DTD/svg11.dtd">
<svg version="1.1" id="Layer_1" xmlns="http://www.w3.org/2000/svg" xmlns:xlink="http://www.w3.org/1999/xlink" x="0px" y="0px"
	 width="3200px" height="1813.502px" viewBox="0 0 3200 1813.502" enable-background="new 0 0 3200 1813.502" xml:space="preserve">
<g>
	<defs>
		<rect id="SVGID_1_" y="0" width="3200" height="1813.501"/>
	</defs>
	<radialGradient id="SVGID_2_" cx="1600" cy="914.2197" r="1858.4095" gradientUnits="userSpaceOnUse">
		<stop  offset="0" style="stop-color:#FFFFFF"/>
		<stop  offset="0.3374" style="stop-color:#FDFDFD"/>
		<stop  offset="0.6645" style="stop-color:#F4F5F5"/>
		<stop  offset="1" style="stop-color:#E6E7E8"/>
	</radialGradient>
	<use xlink:href="#SVGID_1_"  overflow="visible" fill="url(#SVGID_2_)"/>
	<clipPath id="SVGID_3_">
		<use xlink:href="#SVGID_1_"  overflow="visible"/>
	</clipPath>
	<g clip-path="url(#SVGID_3_)">
		<path fill="#010201" d="M1653.101,2756.881c-5.999-396.351-19.638-792.581-40.937-1188.25
			c29.701,395.139,67.059,789.812,112.079,1183.658C1700.533,2754.316,1676.812,2755.816,1653.101,2756.881z"/>
		<path fill="#010201" d="M1830.553,2740.234c-46.508-407.709-100.836-814.431-162.965-1219.918
			c69.699,404.238,147.185,807.213,232.432,1208.608C1876.923,2733.117,1853.766,2736.958,1830.553,2740.234z"/>
		<path fill="#010201" d="M1987.246,2710.79c-92.707-445.592-193.51-889.362-302.364-1331.159
			c114.261,440.451,236.533,878.754,366.809,1314.863C2030.299,2700.281,2008.827,2705.772,1987.246,2710.79z"/>
		<path fill="#010201" d="M2111.078,2677.232c-82.775-311.974-172.204-621.978-268.256-929.907
			c107.696,304.048,221.947,605.808,342.689,905.112C2160.88,2661.226,2136.063,2669.495,2111.078,2677.232z"/>
		<path fill="#010201" d="M2293.096,2610.139c-111.617-292.839-229.563-583.168-353.706-870.704
			c135.813,282.236,277.755,561.554,425.774,837.84C2341.388,2588.738,2317.357,2599.695,2293.096,2610.139z"/>
		<path fill="#010201" d="M2468.105,2523.473c-187.936-357.498-382.766-711.28-584.332-1061.085
			c208.446,345.734,423.654,687.531,645.414,1025.076C2509.066,2499.85,2488.717,2511.883,2468.105,2523.473z"/>
		<path fill="#010201" d="M2628.584,2421.703c-247.576-368.314-501.786-731.93-762.603-1090.83
			c265.763,355.239,538.008,705.576,816.684,1050.966C2664.881,2395.436,2646.842,2408.729,2628.584,2421.703z"/>
		<path fill="#010201" d="M2735.959,2339.42c-203.323-266.097-412.113-527.799-626.262-784.986
			c222.943,249.572,451.188,494.562,684.51,734.72C2775.143,2306.305,2755.732,2323.079,2735.959,2339.42z"/>
		<path fill="#010201" d="M2876.659,2210.212c-316.597-326.157-638.971-646.529-967.014-961.004
			c331.956,310.333,669.495,614.7,1012.492,912.965C2907.286,2178.477,2892.085,2194.454,2876.659,2210.212z"/>
		<path fill="#010201" d="M2996.27,2075.777c-298.713-255.938-602.266-505.912-910.608-749.886
			c313.569,237.21,631.766,468.296,954.478,693.156C3025.872,2038.237,3011.246,2057.15,2996.27,2075.777z"/>
		<path fill="#010201" d="M3097.831,1936.792c-255.918-184.945-515.658-364.288-779.112-537.944
			c270.223,162.914,544.004,320.047,821.148,471.278C3126.326,1892.652,3112.311,1914.881,3097.831,1936.792z"/>
		<path fill="#010201" d="M3180.834,1840.003c-378.654-228.005-761.493-449.015-1148.177-662.828
			c389.634,208.367,783.239,409.612,1180.43,603.518C3202.708,1800.667,3191.964,1820.454,3180.834,1840.003z"/>
		<path fill="#010201" d="M3233.424,1693.192c-370.581-183.555-744.663-359.975-1121.874-529.086
			c380.216,162.247,763.676,317.228,1150.004,464.789C3252.604,1650.516,3243.224,1671.955,3233.424,1693.192z"/>
		<path fill="#010201" d="M3299.037,1530.602c-468.463-174.333-939.814-340.612-1413.888-498.77
			c475.26,154.663,953.055,301.145,1433.441,439.475C3312.366,1491.162,3305.921,1510.965,3299.037,1530.602z"/>
		<path fill="#010201" d="M3353.888,1340.769c-384.534-101.073-770.839-194.54-1158.876-280.402
			c389.748,77.758,780.963,147.863,1173.614,210.314C3364.151,1294.126,3359.24,1317.486,3353.888,1340.769z"/>
		<path fill="#010201" d="M3383.156,1186.308c-394.406-67.95-789.927-128.199-1186.533-180.754
			c397.585,44.424,796,81.116,1195.167,110.096C3389.37,1139.232,3386.471,1162.791,3383.156,1186.308z"/>
		<path fill="#010201" d="M-260.44,983.243c396.416-0.038,792.772-7.698,1188.735-23.006
			c-395.529,23.729-790.752,55.103-1185.221,94.136C-258.555,1030.658-259.758,1006.936-260.44,983.243z"/>
		<path fill="#010201" d="M-246.515,1160.771c408.426-40.288,815.867-88.383,1222.286-144.296
			c-405.311,63.512-809.331,134.8-1212.042,213.885C-240.11,1207.216-243.534,1184.012-246.515,1160.771z"/>
		<path fill="#010201" d="M-219.482,1317.827c447.001-85.856,892.215-179.812,1335.664-281.858
			c-442.15,107.472-882.296,222.98-1320.357,346.534C-209.669,1361.035-214.742,1339.465-219.482,1317.827z"/>
		<path fill="#010201" d="M-187.818,1442.136c313.176-77.945,624.556-162.601,933.913-253.899
			c-305.667,103.001-609.133,212.588-910.289,328.717C-172.598,1492.188-180.476,1467.241-187.818,1442.136z"/>
		<path fill="#010201" d="M-123.54,1625.191c294.529-107.104,586.636-220.576,876.024-340.283
			c-284.253,131.444-565.759,269.11-844.253,412.858C-102.895,1673.823-113.483,1649.616-123.54,1625.191z"/>
		<path fill="#010201" d="M-39.558,1801.556c360.376-182.458,717.042-371.824,1069.926-568.04
			C681.432,1436.679,336.459,1646.599-4.466,1863.201C-16.542,1842.873-28.248,1822.326-39.558,1801.556z"/>
		<path fill="#010201" d="M59.795,1963.601c371.988-241.89,739.529-490.596,1102.307-745.886
			C802.886,1478.014,448.394,1744.93,98.849,2018.292C85.474,2000.331,72.489,1982.064,59.795,1963.601z"/>
		<path fill="#010201" d="M140.455,2072.239c269.149-199.253,533.985-404.026,794.41-614.258
			c-252.966,219.156-501.345,443.606-745.043,673.278C172.965,2111.934,156.502,2092.259,140.455,2072.239z"/>
		<path fill="#010201" d="M267.513,2214.901c330.897-311.583,656.183-629.114,975.56-952.302
			c-315.303,327.163-624.803,660.099-928.219,998.501C298.786,2246.001,283.005,2230.595,267.513,2214.901z"/>
		<path fill="#010201" d="M400.112,2336.521c260.421-294.769,515.001-594.499,763.629-899.092
			c-241.95,309.924-477.837,624.559-707.607,943.839C437.176,2366.706,418.497,2351.778,400.112,2336.521z"/>
		<path fill="#010201" d="M537.504,2440.169c188.795-253.036,372.106-510.052,549.758-770.812
			c-167.022,267.712-328.304,539.034-483.769,813.865C581.184,2469.339,559.183,2454.983,537.504,2440.169z"/>
		<path fill="#010201" d="M642.001,2506.52c233.786-375.162,460.594-754.511,680.33-1137.924
			c-214.338,386.454-421.544,776.855-621.537,1171.072C681.002,2528.951,661.376,2517.943,642.001,2506.52z"/>
		<path fill="#010201" d="M778.926,2579.446c189.232-367.749,371.349-739.015,546.254-1113.642
			c-168.08,377.721-328.92,758.718-482.407,1142.746C821.311,2599.235,800.002,2589.58,778.926,2579.446z"/>
		<path fill="#010201" d="M940.453,2647.551c181.544-465.776,355.038-934.453,520.49-1406.059
			c-161.953,472.799-315.8,948.338-461.494,1426.494C979.662,2661.521,960.014,2654.656,940.453,2647.551z"/>
		<path fill="#010201" d="M1129.438,2705.288c106.97-382.897,206.373-767.746,298.189-1154.414
			c-83.746,388.49-159.856,778.618-228.317,1170.248C1175.924,2716.313,1152.633,2711.004,1129.438,2705.288z"/>
		<path fill="#010201" d="M1283.495,2736.397c73.98-393.252,140.283-787.919,198.873-1183.612
			c-50.487,396.825-93.26,794.694-128.308,1193.333C1330.497,2743.373,1306.97,2740.08,1283.495,2736.397z"/>
		<path fill="#010201" d="M1464.32,2755.751c31.354-321.05,55.9-642.705,73.668-964.589c-5.428,322.355-4.074,644.896,4.037,967.395
			C1516.155,2758.204,1490.235,2757.218,1464.32,2755.751z"/>
		<path fill="#010201" d="M1542.022-903.129c-5.905,396.398-4.209,792.774,5.121,1188.963
			c-17.775-395.901-43.169-791.461-76.216-1186.528C1494.638-901.936,1518.35-902.8,1542.022-903.129z"/>
		<path fill="#010201" d="M1364.475-891.893c34.061,408.977,75.926,817.111,125.621,1224.337
			c-57.313-406.212-122.419-811.313-195.317-1215.17C1317.969-886.24,1341.211-889.257,1364.475-891.893z"/>
		<path fill="#010201" d="M1207.106-867.275c78.977,448.208,166.086,894.902,261.296,1339.816
			c-100.655-443.713-209.4-885.646-326.179-1325.512C1163.761-858.17,1185.405-862.878,1207.106-867.275z"/>
		<path fill="#010201" d="M1082.345-837.546c73.119,314.332,152.979,627.01,239.492,937.701
			c-98.274-307.193-203.186-612.347-314.659-915.231C1032.061-823.13,1057.136-830.59,1082.345-837.546z"/>
		<path fill="#010201" d="M898.309-776.104c102.579,296.184,211.519,589.949,326.774,881.181
			c-127.06-286.254-260.384-569.849-399.835-850.501C849.371-756.171,873.731-766.4,898.309-776.104z"/>
		<path fill="#010201" d="M720.642-694.794c176.905,363.111,360.787,722.64,551.584,1078.49
			C1074.43,31.693,869.817-316.448,658.444-660.663C678.95-672.429,699.694-683.801,720.642-694.794z"/>
		<path fill="#010201" d="M557.049-597.917c236.195,375.65,479.258,746.922,728.994,1113.547
			C1031.261,152.511,769.748-206.042,501.754-559.688C519.945-572.762,538.365-585.53,557.049-597.917z"/>
		<path fill="#010201" d="M447.174-518.897C642.278-246.777,843.048,21.19,1049.27,284.754
			C833.997,28.495,613.344-223.264,387.389-470.442C406.975-487,426.91-503.155,447.174-518.897z"/>
		<path fill="#010201" d="M302.58-394.017c306.535,335.611,619.05,665.637,937.387,989.92
			C917.594,275.637,589.441-38.842,255.666-347.381C271.042-363.186,286.638-378.782,302.58-394.017z"/>
		<path fill="#010201" d="M178.972-263.283c290.749,264.85,586.631,524,887.366,777.201
			C760.157,267.31,449.102,26.623,133.398-207.946C148.211-226.704,163.424-245.143,178.972-263.283z"/>
		<path fill="#010201" d="M73.256-127.515C323.4,65.121,577.593,252.33,835.59,433.928C570.48,262.854,301.626,97.43,29.218-62.205
			C43.414-84.307,58.118-106.069,73.256-127.515z"/>
		<path fill="#010201" d="M5.339-24.07c371.566,239.508,747.37,472.067,1127.392,697.654
			C749.588,453.355,362.428,240.208-28.701,34.191C-17.697,14.563-6.34-4.855,5.339-24.07z"/>
		<path fill="#010201" d="M-69.663,111.684c364.835,194.867,733.228,382.64,1105.136,563.289
			C660.348,501.101,281.932,334.455-99.739,175.059C-90.099,153.745-80.073,132.618-69.663,111.684z"/>
		<path fill="#010201" d="M-140.203,272.122c462.865,188.666,928.908,369.39,1397.855,542.06
			C787.449,644.986,314.269,483.814-161.552,330.787C-154.795,311.1-147.637,291.557-140.203,272.122z"/>
		<path fill="#010201" d="M-200.853,460.191c381.161,112.84,764.52,218.179,1149.67,315.911
			c-387.114-89.7-776.081-171.815-1166.575-246.276C-212.609,506.508-206.945,483.293-200.853,460.191z"/>
		<path fill="#010201" d="M-234.344,613.801c392.08,80.007,785.686,152.346,1180.422,216.972
			C550.11,774.223,152.892,725.368-245.14,684.251C-242.015,660.718-238.425,637.224-234.344,613.801z"/>
		<path fill="#010201" d="M-256.465,794.446c320.545,36.222,641.78,65.64,963.354,88.251
			c-322.199-10.294-644.767-13.791-967.33-10.514C-259.677,846.288-258.362,820.368-256.465,794.446z"/>
		<path fill="#010201" d="M3400.84,927.712c-396.313-11.829-792.616-16.075-1188.922-12.715
			c396.144-11.824,791.994-31.254,1187.556-58.321C3400.357,880.38,3400.809,904.059,3400.84,927.712z"/>
		<path fill="#010201" d="M3392.272,750.209c-409.375,27.827-818.223,63.479-1226.091,106.939
			c407-51.108,813.105-110.018,1217.994-176.729C3387.354,703.644,3390.014,726.917,3392.272,750.209z"/>
		<path fill="#010201" d="M3370.08,592.571c-449.334,72.078-897.37,152.333-1343.653,240.677
			c445.163-93.817,888.769-195.766,1330.356-305.761C3361.624,549.105,3366.064,570.805,3370.08,592.571z"/>
		<path fill="#010201" d="M3342.295,467.396c-315.442,68.272-629.282,143.299-941.289,225.021
			c308.654-93.527,615.418-193.73,919.964-300.517C3328.611,416.911,3335.758,442.077,3342.295,467.396z"/>
		<path fill="#010201" d="M3283.667,282.431c-297.709,97.998-593.109,202.407-886.094,313.176
			c288.208-122.658,573.764-251.583,856.557-386.719C3264.499,233.179,3274.348,257.703,3283.667,282.431z"/>
		<path fill="#010201" d="M3256.558,78.221c-365.743,171.292-779.593,374.962-1138.27,560.26
			c354.953-192.36,757.714-416.932,1105.075-622.995C3234.85,36.157,3245.896,57.09,3256.558,78.221z"/>
		<path fill="#010201" d="M3110.713-61.615c-379.25,230.458-754.132,467.792-1124.557,711.937
			c367.024-249.256,729.417-505.207,1087.16-767.824C3086.099-99.096,3098.588-80.478,3110.713-61.615z"/>
		<path fill="#010201" d="M3033.35-172.706c-275.068,190.95-546.055,387.618-812.707,589.801
			c259.467-211.324,514.597-428.167,765.146-650.318C3002.067-213.399,3017.927-193.222,3033.35-172.706z"/>
		<path fill="#010201" d="M2910.67-319.205c-340.259,301.442-674.947,608.868-1004.044,922.265
			c325.143-317.496,644.524-640.799,958.127-969.884C2880.327-351.213,2895.633-335.335,2910.67-319.205z"/>
		<path fill="#010201" d="M2781.832-444.771c-269.252,286.71-532.834,578.585-790.601,875.463
			c251.229-302.396,496.63-609.778,735.959-921.865C2745.697-476.048,2763.948-460.614,2781.832-444.771z"/>
		<path fill="#010201" d="M2647.711-552.533c-196.444,247.215-387.471,498.49-572.997,753.711
			c175.092-262.465,344.608-528.786,508.372-798.706C2604.951-582.982,2626.502-567.987,2647.711-552.533z"/>
		<path fill="#010201" d="M2545.324-621.981c-245.112,367.81-483.444,740.112-714.784,1116.589
			c226.038-379.702,445.113-763.617,657.064-1151.5C2507.083-645.637,2526.301-633.956,2545.324-621.981z"/>
		<path fill="#010201" d="M2410.777-699.021c-200.404,361.75-393.846,727.296-580.16,1096.349
			c179.593-372.39,352.048-748.253,517.268-1127.396C2369.068-720.148,2390.011-709.75,2410.777-699.021z"/>
		<path fill="#010201" d="M2251.477-772.011c-195.753,459.888-383.634,923.125-563.502,1389.344
			c176.412-467.536,344.853-938.189,505.184-1411.597C2212.724-787.174,2232.18-779.778,2251.477-772.011z"/>
		<path fill="#010201" d="M2064.381-835.554c-118.704,379.399-229.92,761.057-333.576,1144.675
			C1826.453-76.555,1914.548-464.238,1995-853.524C2018.233-847.982,2041.378-842.03,2064.381-835.554z"/>
		<path fill="#010201" d="M1911.258-871.414C1825.24-480.58,1746.885-88.189,1676.212,305.56
			c62.62-395.097,117.535-791.47,164.729-1188.854C1864.436-879.766,1887.889-875.864,1911.258-871.414z"/>
		<path fill="#010201" d="M1730.849-896.312c-41.095,319.996-75.375,640.691-102.85,961.93
			c15.174-322.026,23.53-644.507,25.102-967.071C1679.011-900.275,1704.936-898.594,1730.849-896.312z"/>
	</g>
</g>
</svg>
