<?xml version="1.0" standalone="no"?>
<!DOCTYPE svg PUBLIC "-//W3C//DTD SVG 20010904//EN"
 "http://www.w3.org/TR/2001/REC-SVG-20010904/DTD/svg10.dtd">
<svg version="1.0" xmlns="http://www.w3.org/2000/svg"
 width="477.000000pt" height="477.000000pt" viewBox="0 0 477.000000 477.000000"
 preserveAspectRatio="xMidYMid meet">
<metadata>
Created by potrace 1.14, written by Peter Selinger 2001-2017
</metadata>
<g transform="translate(0.000000,477.000000) scale(0.100000,-0.100000)"
fill="#000000" stroke="none">
<path d="M3353 3379 c-95 -36 -171 -91 -209 -151 l-25 -40 -28 44 c-33 52 -92
105 -139 125 -102 43 -256 -3 -401 -120 l-55 -44 -47 47 c-75 75 -147 100
-226 78 -36 -10 -105 -68 -114 -97 -4 -12 -9 -12 -29 -1 -52 28 -124 38 -166
24 -54 -18 -110 -83 -131 -153 -9 -31 -19 -58 -21 -61 -1 -2 -14 10 -28 28
-45 57 -124 83 -249 83 -142 0 -247 -66 -310 -194 -31 -64 -125 -357 -135
-422 -1 -5 -12 40 -25 100 -27 127 -42 162 -90 204 -46 40 -94 52 -185 45
-201 -15 -324 -84 -393 -221 -28 -54 -126 -322 -288 -789 -58 -165 -66 -233
-39 -315 29 -86 102 -138 230 -164 37 -8 201 6 194 16 -3 5 1 6 9 4 19 -8 82
38 81 58 -1 9 2 14 7 11 11 -7 40 57 31 70 -3 5 10 -2 29 -16 19 -14 51 -31
73 -38 37 -12 178 -15 227 -4 13 2 47 9 74 15 28 5 52 14 53 19 2 6 10 10 18
10 8 0 17 7 21 16 3 9 12 13 21 9 23 -9 202 6 196 16 -3 5 1 6 9 3 18 -6 75
63 80 97 2 13 7 23 11 22 3 -2 28 -14 55 -28 56 -28 120 -37 203 -28 38 4 55
10 51 17 -4 8 -2 8 6 0 14 -13 51 -7 51 7 0 5 7 6 15 3 9 -4 27 6 45 26 16 17
33 29 37 27 44 -27 224 -9 261 26 19 18 33 21 75 19 29 -2 66 1 83 7 22 6 35
6 43 -2 6 -6 11 -7 11 -1 0 5 9 10 21 11 19 2 67 47 70 66 1 4 3 12 4 17 1 6
3 14 4 19 0 4 20 3 44 -5 124 -37 247 -44 247 -13 0 6 4 8 8 5 11 -7 36 39 29
51 -5 7 70 2 177 -11 29 -4 62 11 101 46 19 16 25 16 65 4 25 -7 54 -11 65 -9
11 2 43 5 72 8 54 4 103 28 103 51 0 11 6 11 27 3 15 -6 44 -7 63 -3 19 4 55
8 79 8 32 1 48 8 61 24 10 12 24 22 30 22 7 0 10 7 6 16 -3 8 -2 12 4 9 5 -3
14 5 21 17 6 13 13 25 15 27 2 2 15 -10 29 -27 29 -35 67 -50 110 -46 17 2 57
3 90 4 64 1 86 12 120 63 12 19 23 26 34 22 9 -4 36 -9 61 -12 25 -3 62 -8 82
-13 41 -9 80 9 114 52 14 18 25 23 39 18 11 -4 34 -6 50 -4 17 1 49 -2 72 -8
37 -9 47 -7 77 11 39 24 92 120 82 146 -3 10 -2 13 5 10 6 -4 9 -1 8 6 -2 8 1
32 6 54 4 22 8 43 7 48 -1 4 2 7 7 7 5 0 11 15 15 33 6 31 38 120 58 164 6 11
7 27 3 34 -5 7 -4 10 2 6 17 -11 53 123 56 207 4 98 -15 156 -71 224 -29 35
-56 55 -86 65 -44 15 -105 13 -138 -4 -14 -8 -25 -1 -53 30 -48 53 -123 84
-183 76 -26 -3 -52 -11 -58 -16 -8 -7 -18 -3 -30 13 -36 44 -99 88 -134 91
-49 6 -84 -9 -123 -53 -42 -45 -65 -104 -108 -277 -18 -73 -35 -133 -38 -133
-3 0 -7 17 -7 38 -3 77 -38 222 -69 284 -74 146 -171 189 -312 137z m301 -896
c-9 -27 -21 -52 -25 -57 -13 -15 -20 33 -7 56 7 13 11 27 10 31 -1 5 2 6 7 3
5 -4 13 4 17 16 4 13 9 18 11 11 3 -7 -3 -34 -13 -60z m-1849 -781 c-3 -3 -11
0 -18 7 -9 10 -8 11 6 5 10 -3 15 -9 12 -12z m-1311 -250 c3 -5 -1 -9 -9 -9
-8 0 -12 4 -9 9 3 4 7 8 9 8 2 0 6 -4 9 -8z"/>
</g>
</svg>
